<svg xmlns="http://www.w3.org/2000/svg" width="20" height="20" viewBox="0 0 20 20">
    <path d="M17.942 5.072a.4.4 0 0 1-.077.59L16.64 6.5a1.007 1.007 0 1 0 1.139 1.661l1.411-.96a.4.4 0 0 1 .547.088c.286.375.556.738.8 1.063a1.5 1.5 0 0 1-.5 2.235 21.258 21.258 0 0 1-5.105 1.908.431.431 0 0 1-.477-.255 3.626 3.626 0 0 0-.395-.668 18.989 18.989 0 0 0-1.8-2.153 19.03 19.03 0 0 0-2.161-1.79 3.647 3.647 0 0 0-.757-.429.429.429 0 0 1-.266-.478A21.029 21.029 0 0 1 11 1.592a1.513 1.513 0 0 1 2.244-.5c.33.24.7.511 1.077.8a.4.4 0 0 1 .084.55l-.961 1.355a1.009 1.009 0 0 0 1.65 1.16l.856-1.207a.4.4 0 0 1 .589-.072c.265.232.509.458.723.67s.444.457.68.724zM7.325 19.8l.06-.047.058-.048c.857-.715 1.745-1.457 2.582-2.29a.1.1 0 0 0 0-.142l-.346-.373c-.773-.833-1.558-1.679-2.4-2.523s-1.7-1.625-2.533-2.4l-.376-.346a.1.1 0 0 0-.143 0c-.837.833-1.581 1.718-2.3 2.571l-.049.058-.045.056a3.886 3.886 0 0 0 5.5 5.48zm3.87-4.234a.352.352 0 0 0 .526-.01q.306-.358.6-.713l.049-.058a1.63 1.63 0 0 0 .056-2.017 17.085 17.085 0 0 0-1.6-1.93 17.119 17.119 0 0 0-1.938-1.6 1.646 1.646 0 0 0-2.026.062l-.062.044q-.356.3-.717.6a.348.348 0 0 0-.01.523c.851.783 1.75 1.611 2.625 2.483s1.71 1.768 2.497 2.616z" transform="translate(-.833 -.79)" style="fill:#eb86be;fill-rule:evenodd"/>
</svg>
