<svg xmlns="http://www.w3.org/2000/svg" width="20" height="20" viewBox="0 0 20 20">
    <path d="M3.3 5.795a.39.39 0 0 1-.359-.416c.039-.454.086-.9.134-1.341A3.884 3.884 0 0 1 6.483.615 34.084 34.084 0 0 1 10.3.352a34.084 34.084 0 0 1 3.816.263 3.884 3.884 0 0 1 3.41 3.423c.048.439.095.887.134 1.341a.39.39 0 0 1-.36.421 8.99 8.99 0 0 0-.919.139A3.415 3.415 0 0 0 13.7 9.107v.076a.376.376 0 0 1-.384.354q-3-.074-6.012 0a.376.376 0 0 1-.384-.354v-.075a3.415 3.415 0 0 0-2.698-3.174 9.006 9.006 0 0 0-.922-.139zm.562 1.982A1.541 1.541 0 0 1 5.041 9.22c.037.614.075 1.243.1 1.883a.38.38 0 0 0 .392.368c1.321-.045 3.6-.083 4.747-.083 1.169 0 3.463.038 4.8.085a.38.38 0 0 0 .392-.368c.022-.641.06-1.27.1-1.885a1.542 1.542 0 0 1 1.18-1.444 5.824 5.824 0 0 1 1.13-.131A5.827 5.827 0 0 1 19 7.776a1.541 1.541 0 0 1 1.18 1.444c.057.953.116 1.941.116 2.953 0 .394-.014 1.586-.034 2.087a2.861 2.861 0 0 1-2.2 2.731.419.419 0 0 0-.343.4v1.837a1.122 1.122 0 1 1-2.244 0v-1.8a.375.375 0 0 0-.374-.376H5.494a.375.375 0 0 0-.374.376v1.8a1.122 1.122 0 1 1-2.244 0v-1.84a.419.419 0 0 0-.343-.4 2.861 2.861 0 0 1-2.2-2.731A74.789 74.789 0 0 1 .3 12.173c0-1.012.059-2 .116-2.953A1.541 1.541 0 0 1 1.6 7.777a5.842 5.842 0 0 1 1.133-.131 5.842 5.842 0 0 1 1.128.131z" transform="translate(-.299 -.352)" style="fill:#fdcd56;fill-rule:evenodd"/>
</svg>
