<svg xmlns="http://www.w3.org/2000/svg" width="18" height="20" viewBox="0 0 18 20">
    <path d="M5.611.391A1.854 1.854 0 0 0 4.35.863c-.491.436-1 .894-1.493 1.393s-.948 1.013-1.379 1.509a1.953 1.953 0 0 0-.133 2.408 5.119 5.119 0 0 0 .491.585 5.092 5.092 0 0 0 .579.5A1.9 1.9 0 0 0 4.8 7.12a.35.35 0 0 1 .568.191c.025.12.042.274.063.474l.014.132a7.18 7.18 0 0 0 .134.852v.019a.359.359 0 0 0 .353.273h8.114a.363.363 0 0 0 .355-.28 7.792 7.792 0 0 0 .133-.859l.013-.125c.022-.206.039-.365.065-.487a.35.35 0 0 1 .567-.191 1.9 1.9 0 0 0 2.384.134 5.094 5.094 0 0 0 .58-.5 5.124 5.124 0 0 0 .491-.586 1.953 1.953 0 0 0-.133-2.408c-.431-.5-.885-1.01-1.379-1.508s-1-.957-1.493-1.393a1.854 1.854 0 0 0-1.257-.466q-.846.016-1.7.026a.375.375 0 0 0-.343.238 2.52 2.52 0 0 1-2.339 1.6 2.52 2.52 0 0 1-2.336-1.6.375.375 0 0 0-.344-.238Q6.458.408 5.611.391zm8.852 10.675a.369.369 0 0 0-.266-.112h-8.41a.369.369 0 0 0-.266.112c-.251.26-.562.593-.9.98A16.011 16.011 0 0 0 2.2 15.6a2.214 2.214 0 0 0 .225 2.239 3.681 3.681 0 0 0 1.88 1.361l.017.005a18.58 18.58 0 0 0 5.671 1.189 18.58 18.58 0 0 0 5.67-1.194l.017-.005a3.682 3.682 0 0 0 1.875-1.355 2.214 2.214 0 0 0 .225-2.24 16.012 16.012 0 0 0-2.419-3.557 25.515 25.515 0 0 0-.898-.976z" transform="translate(-.992 -.391)" style="fill:#9ed26a;fill-rule:evenodd"/>
</svg>
