<svg xmlns="http://www.w3.org/2000/svg" width="16" height="20" viewBox="0 0 16 20">
    <path d="M2.944 8.2a.393.393 0 0 0 .38-.3 5.7 5.7 0 0 1 .359-1.065 2.417 2.417 0 0 1 1.064-1.2c.233-.114.87-.385 1.417-.614l.387-.161a.32.32 0 0 0 .2-.3c-.007-.4-.012-.9-.007-1.232A2.949 2.949 0 0 1 9.562.36a3.028 3.028 0 0 1 2.885 2.947c.009.2.015.409.015.618 0 .17-.008.386-.018.6a.38.38 0 0 0 .237.37l.334.136c.554.227 1.209.5 1.443.617a2.436 2.436 0 0 1 1.056 1.2 5.727 5.727 0 0 1 .356 1.06.392.392 0 0 0 .38.3h.37a1.13 1.13 0 1 1 0 2.259H2.913a1.13 1.13 0 1 1 0-2.259zm.313 4.124a.376.376 0 0 0-.379.35c-.024.4-.038.807-.038 1.217a26.706 26.706 0 0 0 .178 2.843 3.917 3.917 0 0 0 3.488 3.436 28.377 28.377 0 0 0 2.987.186 28.377 28.377 0 0 0 2.987-.186 3.917 3.917 0 0 0 3.488-3.436 26.681 26.681 0 0 0 .178-2.843c0-.41-.014-.816-.038-1.217a.376.376 0 0 0-.379-.35zm7.831 3.038a.941.941 0 1 0 0 1.882h2.1a.941.941 0 1 0 0-1.882z" transform="translate(-1.767 -.36)" style="fill:#fa6c51;fill-rule:evenodd"/>
</svg>
