<svg xmlns="http://www.w3.org/2000/svg" width="20" height="20" viewBox="0 0 20 20">
    <path d="M9.549.932a.378.378 0 0 0-.408-.381 9.729 9.729 0 0 0-5.516 2.086.387.387 0 0 0 .018.594 9.1 9.1 0 0 1 3.083 7.319 9.1 9.1 0 0 1-3.083 7.319.387.387 0 0 0-.018.594 9.727 9.727 0 0 0 5.516 2.085.378.378 0 0 0 .408-.381zM.513 10.55a11.283 11.283 0 0 1 1.524-6.089.022.022 0 0 1 .032-.006C3.813 5.717 4.8 7.727 4.8 10.55s-.986 4.833-2.73 6.094a.022.022 0 0 1-.032-.006A11.283 11.283 0 0 1 .513 10.55zm18.468 6.094a11.278 11.278 0 0 0 1.528-6.094 11.278 11.278 0 0 0-1.528-6.094c-1.744 1.262-2.73 3.272-2.73 6.094s.986 4.833 2.73 6.094zm-1.586 1.215a.388.388 0 0 1 .018.593 9.72 9.72 0 0 1-5.529 2.1.378.378 0 0 1-.408-.381V.932a.378.378 0 0 1 .408-.381 9.72 9.72 0 0 1 5.529 2.1.387.387 0 0 1-.018.593 9.1 9.1 0 0 0-3.071 7.309 9.1 9.1 0 0 0 3.071 7.306z" transform="translate(-.513 -.55)" style="fill:#5e9cea;fill-rule:evenodd"/>
</svg>
