<svg xmlns="http://www.w3.org/2000/svg" width="20" height="20.002" viewBox="0 0 20 20.002">
    <path data-name="bank (7)" d="M20 18.749A1.25 1.25 0 0 1 18.749 20H1.25a1.25 1.25 0 0 1 0-2.5h17.5A1.25 1.25 0 0 1 20 18.749zM.308 7.783a2.525 2.525 0 0 1 .109-2.594A4.25 4.25 0 0 1 1.9 3.8L7.87.543a4.428 4.428 0 0 1 4.26 0L18.1 3.8a4.255 4.255 0 0 1 1.487 1.389 2.527 2.527 0 0 1 .112 2.6A2.6 2.6 0 0 1 17.5 9.158v4.174h.417a1.25 1.25 0 1 1 0 2.5H2.083a1.25 1.25 0 1 1 0-2.5H2.5V9.158A2.6 2.6 0 0 1 .308 7.783zM5 13.332h1.666V9.166H5zm4.166-4.166v4.167h1.667V9.166zM15 13.332V9.166h-1.667v4.167zM2.5 6.572a.117.117 0 0 0 .109.094H17.39a.121.121 0 0 0 .109-.1 1.787 1.787 0 0 0-.6-.577l-5.967-3.251a1.937 1.937 0 0 0-1.863 0L3.1 5.993a1.75 1.75 0 0 0-.6.579z" transform="translate(0 .003)" style="fill:#5e9cea"/>
</svg>
