<svg data-name="box (3)" xmlns="http://www.w3.org/2000/svg" width="20.002" height="20.002" viewBox="0 0 20.002 20.002">
    <path data-name="Path 1041578" d="M20 4.584A4.589 4.589 0 0 0 15.418 0H4.584A4.589 4.589 0 0 0 0 4.584v.833a2.9 2.9 0 0 0 .833 2.035v7.966A4.589 4.589 0 0 0 5.417 20h9.168a4.589 4.589 0 0 0 4.584-4.584V7.452A2.9 2.9 0 0 0 20 5.417zm-17.5 0A2.084 2.084 0 0 1 4.584 2.5h10.834A2.084 2.084 0 0 1 17.5 4.584v.833a.417.417 0 0 1-.417.417H2.917a.417.417 0 0 1-.417-.417zm14.168 10.834a2.084 2.084 0 0 1-2.083 2.082H5.417a2.084 2.084 0 0 1-2.084-2.084V8.334h13.335v7.084z" style="fill:#5e9cea"/>
    <path data-name="Path 1041579" d="M171.917 256h4.167a1.25 1.25 0 0 1 1.25 1.25 1.25 1.25 0 0 1-1.25 1.25h-4.167a1.25 1.25 0 0 1-1.25-1.25 1.25 1.25 0 0 1 1.25-1.25z" transform="translate(-164 -245.999)" style="fill:#5e9cea"/>
</svg>
