<svg xmlns="http://www.w3.org/2000/svg" width="20" height="20" viewBox="0 0 20 20">
    <path d="M10.641.281A9.752 9.752 0 0 0 3.5 2.824 9.766 9.766 0 0 0 .96 9.968a11.752 11.752 0 0 0 .822 4.547L.414 18.278A1.49 1.49 0 0 0 2.285 20.2l3.943-1.315a11.84 11.84 0 0 0 4.413.769 9.752 9.752 0 0 0 7.139-2.543 9.766 9.766 0 0 0 2.542-7.144 9.766 9.766 0 0 0-2.542-7.143A9.751 9.751 0 0 0 10.641.281zM6.079 8.059a.931.931 0 0 1 .931-.931h7.261a.931.931 0 0 1 0 1.863H7.01a.931.931 0 0 1-.931-.932zM7.01 11.6a.931.931 0 0 0 0 1.863h5.49a.931.931 0 0 0 0-1.863z" style="fill:#cad0d7;fill-rule:evenodd" transform="translate(-.322 -.281)"/>
</svg>
