<svg xmlns="http://www.w3.org/2000/svg" width="20" height="19.987" viewBox="0 0 20 19.987">
    <path d="M3.5 2.822A9.755 9.755 0 0 1 10.641.281a9.755 9.755 0 0 1 7.139 2.541 9.756 9.756 0 0 1 2.542 7.139A9.756 9.756 0 0 1 17.78 17.1a9.755 9.755 0 0 1-7.139 2.541 11.847 11.847 0 0 1-4.413-.769l-3.943 1.316a1.489 1.489 0 0 1-1.871-1.922l1.368-3.761A11.737 11.737 0 0 1 .96 9.962a9.755 9.755 0 0 1 2.54-7.14zm2.186 5.857c.033-2.226 2.534-4.292 4.9-1.385 2.369-2.907 4.87-.841 4.9 1.385 0 3.315-3.966 6.035-4.9 6.035s-4.9-2.721-4.9-6.035z" transform="translate(-.322 -.281)" style="fill:#cad0d7;fill-rule:evenodd"/>
</svg>
