<svg xmlns="http://www.w3.org/2000/svg" width="20" height="20" viewBox="0 0 20 20">
    <path d="M2.874 2.874A10.078 10.078 0 0 1 10.25.25a10.078 10.078 0 0 1 7.376 2.624 10.078 10.078 0 0 1 2.624 7.376 10.078 10.078 0 0 1-2.624 7.376 10.078 10.078 0 0 1-7.376 2.624 10.078 10.078 0 0 1-7.376-2.624A10.078 10.078 0 0 1 .25 10.25a10.078 10.078 0 0 1 2.624-7.376zM14.2 7.916A1.545 1.545 0 0 0 12.585 6.3 15.8 15.8 0 0 0 5.53 8.736a1.082 1.082 0 0 0-.517 1.127 1.173 1.173 0 0 0 .814.935 12.735 12.735 0 0 1 1.507.556 3.933 3.933 0 0 1 1.116.7 3.932 3.932 0 0 1 .7 1.116 12.734 12.734 0 0 1 .55 1.504 1.173 1.173 0 0 0 .935.814 1.082 1.082 0 0 0 1.127-.517A15.8 15.8 0 0 0 14.2 7.916z" transform="translate(-.25 -.25)" style="fill:#cad0d7;fill-rule:evenodd"/>
</svg>
