<svg xmlns="http://www.w3.org/2000/svg" width="18" height="20" viewBox="0 0 18 20">
    <g data-name="Group 33573">
        <path data-name="Path 136492" d="M12 2.007a1.238 1.238 0 0 1 1.227 1.249V7.42A1.239 1.239 0 0 1 12 8.67a1.239 1.239 0 0 1-1.227-1.25V3.256A1.238 1.238 0 0 1 12 2.007z" style="fill:#5e9cea" transform="translate(-3.004 -2.007)"/>
        <path data-name="Path 136493" d="M14.864 6.121a1.217 1.217 0 0 0 .549 1.038 6.731 6.731 0 0 1 2.172 9.159 6.477 6.477 0 0 1-9 2.212 6.732 6.732 0 0 1-2.169-9.159 6.608 6.608 0 0 1 2.158-2.2 1.23 1.23 0 0 0 .563-1.046 1.239 1.239 0 0 0-1.223-1.256 1.212 1.212 0 0 0-.658.193 9.258 9.258 0 0 0-2.9 12.616 8.907 8.907 0 0 0 12.392 2.949 9.259 9.259 0 0 0 2.9-12.617 9.085 9.085 0 0 0-2.9-2.948 1.218 1.218 0 0 0-1.7.391 1.269 1.269 0 0 0-.184.668z" style="fill:#5e9cea" transform="translate(-3.004 -2.007)"/>
    </g>
</svg>
