<svg xmlns="http://www.w3.org/2000/svg" width="22" height="24" viewBox="0 0 22 24">
    <path data-name="bell (4)" d="m22.8 13.215-1.772-6.3A9.579 9.579 0 0 0 2.5 7.4l-1.37 6.091a5.456 5.456 0 0 0 1.095 4.639 5.588 5.588 0 0 0 4.339 2.06h.4a5.364 5.364 0 0 0 10.272 0h.2a5.586 5.586 0 0 0 4.431-2.173 5.453 5.453 0 0 0 .931-4.8zM19.455 16.2a2.519 2.519 0 0 1-2.014.988H6.564a2.54 2.54 0 0 1-1.972-.936 2.48 2.48 0 0 1-.5-2.107l1.37-6.1a6.536 6.536 0 0 1 12.646-.326l1.768 6.3a2.457 2.457 0 0 1-.424 2.187z" transform="translate(-1.001 -.008)" style="fill:#cad0d7"/>
</svg>
