<svg xmlns="http://www.w3.org/2000/svg" width="16" height="15.997" viewBox="0 0 16 15.997">
    <g data-name="paper-plane (1)">
        <path data-name="Path 1041606" d="M15.333.716a2.238 2.238 0 0 0-2.118-.6L3.024 2.254a3.542 3.542 0 0 0-1.986 6.009l1.093 1.093a.267.267 0 0 1 .079.191v2.016a2.274 2.274 0 0 0 2.272 2.272H6.5a.272.272 0 0 1 .192.079l1.092 1.092a3.522 3.522 0 0 0 2.5 1.04 3.567 3.567 0 0 0 1.138-.187 3.521 3.521 0 0 0 2.375-2.838l2.136-10.159a2.254 2.254 0 0 0-.6-2.146zM2.081 5.266a1.514 1.514 0 0 1 1.253-1.037l.07-.012 8.88-1.866-8.074 8.07v-.874a2.254 2.254 0 0 0-.667-1.606L2.452 6.849a1.516 1.516 0 0 1-.371-1.583zm9.747 7.378a.853.853 0 0 0-.012.07A1.543 1.543 0 0 1 9.2 13.6l-1.1-1.1a2.255 2.255 0 0 0-1.6-.663h-.877L13.7 3.762z" transform="translate(0 -.049)" style="fill:#fa6c51"/>
    </g>
</svg>
