<svg xmlns="http://www.w3.org/2000/svg" width="16" height="16" viewBox="0 0 16 16">
    <path data-name="phone-rotary (1)" d="M14.2 7.744A3.016 3.016 0 0 0 16 4.978a3.756 3.756 0 0 0-1.121-2.668C13.381.813 10.84-.015 7.914 0 5.076.03 2.537.893 1.121 2.31A3.768 3.768 0 0 0 0 5a3 3 0 0 0 1.8 2.744L.916 9.379A7.7 7.7 0 0 0 0 13.013 2.989 2.989 0 0 0 2.986 16h10.028A2.989 2.989 0 0 0 16 13.013a7.7 7.7 0 0 0-.917-3.635L14.2 7.744zM2.535 3.724A8.1 8.1 0 0 1 7.936 2a7.965 7.965 0 0 1 5.53 1.723A1.778 1.778 0 0 1 14 5a1 1 0 0 1-.781.976l-.695-1.157a1 1 0 0 0-.343-.343A8.963 8.963 0 0 0 8 3.333a8.963 8.963 0 0 0-4.18 1.143 1 1 0 0 0-.343.343l-.694 1.157a1.011 1.011 0 0 1-.782-1 1.767 1.767 0 0 1 .535-1.252zM13.014 14H2.986A.988.988 0 0 1 2 13.013a5.7 5.7 0 0 1 .677-2.687L4.2 7.5l.85-1.417A6.931 6.931 0 0 1 8 5.332a6.945 6.945 0 0 1 2.951.75L11.8 7.5l1.521 2.827A5.684 5.684 0 0 1 14 13.013a.987.987 0 0 1-.986.986zm-2.347-4A2.667 2.667 0 1 1 8 7.333 2.669 2.669 0 0 1 10.667 10z" style="fill:#fa6c51"/>
</svg>
