<svg data-name="Group 54118" xmlns="http://www.w3.org/2000/svg" width="24" height="24" viewBox="0 0 24 24">
    <defs>
        <clipPath id="ai5f1nfs9a">
            <path data-name="Rectangle 27025" style="fill:#cad0d7" d="M0 0h24v24H0z"/>
        </clipPath>
    </defs>
    <g data-name="Group 52560" style="clip-path:url(#ai5f1nfs9a)">
        <path data-name="Path 823444" d="M5.5 11A5.5 5.5 0 1 1 11 5.5 5.5 5.5 0 0 1 5.5 11m0-8A2.5 2.5 0 1 0 8 5.5 2.5 2.5 0 0 0 5.5 3" style="fill:#cad0d7"/>
        <path data-name="Path 823445" d="M18.5 11A5.5 5.5 0 1 1 24 5.5a5.5 5.5 0 0 1-5.5 5.5m0-8A2.5 2.5 0 1 0 21 5.5 2.5 2.5 0 0 0 18.5 3" style="fill:#cad0d7"/>
        <path data-name="Path 823446" d="M5.5 24a5.5 5.5 0 1 1 5.5-5.5A5.5 5.5 0 0 1 5.5 24m0-8A2.5 2.5 0 1 0 8 18.5 2.5 2.5 0 0 0 5.5 16" style="fill:#cad0d7"/>
        <path data-name="Path 823447" d="M18.5 24a5.5 5.5 0 1 1 5.5-5.5 5.5 5.5 0 0 1-5.5 5.5m0-8a2.5 2.5 0 1 0 2.5 2.5 2.5 2.5 0 0 0-2.5-2.5" style="fill:#cad0d7"/>
    </g>
</svg>
