<svg xmlns="http://www.w3.org/2000/svg" width="20" height="20" viewBox="0 0 20 20">
    <path d="M2.874 2.874A10.078 10.078 0 0 1 10.25.25a10.078 10.078 0 0 1 7.376 2.624 10.078 10.078 0 0 1 2.624 7.376 10.078 10.078 0 0 1-2.624 7.376 10.078 10.078 0 0 1-7.376 2.624 10.078 10.078 0 0 1-7.376-2.624A10.078 10.078 0 0 1 .25 10.25a10.078 10.078 0 0 1 2.624-7.376zM7.022 6.6a5.266 5.266 0 0 0-.943 1.281l-.256-.051A1.284 1.284 0 0 0 4.47 9.748a11.783 11.783 0 0 0 1.183 1.631.926.926 0 0 0 1.147.221 11.784 11.784 0 0 0 1.7-1.074 1.284 1.284 0 0 0-.478-2.269 3.415 3.415 0 1 1 1.164 5.11.926.926 0 1 0-.842 1.649A5.266 5.266 0 1 0 7.022 6.6z" transform="translate(-.25 -.25)" style="fill:#ffb80e;fill-rule:evenodd"/>
</svg>
