<svg xmlns="http://www.w3.org/2000/svg" width="20.002" height="20" viewBox="0 0 20.002 20">
    <path data-name="Path 1041580" d="M4.961 8.99a7.579 7.579 0 0 1 12.425-4.655l-.977.977A.839.839 0 0 0 17 6.743h3.845a.838.838 0 0 0 .838-.838V2.059a.839.839 0 0 0-1.431-.593l-1.09 1.09A10.083 10.083 0 0 0 2.478 8.624a1.256 1.256 0 1 0 2.484.366z" transform="translate(-2.461)" style="fill:#5e9cea"/>
    <path data-name="Path 1041581" d="M40.205 256.891A1.27 1.27 0 0 0 38.959 258a7.579 7.579 0 0 1-12.424 4.655l.977-.977a.839.839 0 0 0-.593-1.431h-3.846a.838.838 0 0 0-.839.839v3.845a.839.839 0 0 0 1.431.593l1.09-1.09a10.082 10.082 0 0 0 16.686-6.067 1.27 1.27 0 0 0-1.238-1.474z" transform="translate(-21.458 -246.989)" style="fill:#5e9cea"/>
</svg>
