<svg xmlns="http://www.w3.org/2000/svg" width="18" height="20" viewBox="0 0 18 20">
    <path data-name="sack (4)" d="M11.429 4.335a7.09 7.09 0 0 0 2.594-2.949A1.031 1.031 0 0 0 13.058 0H6.942a1.031 1.031 0 0 0-.965 1.386 7.09 7.09 0 0 0 2.594 2.949C4.364 5.325 1 10.488 1 14.792A5.168 5.168 0 0 0 6.114 20h7.773A5.168 5.168 0 0 0 19 14.792c0-4.3-3.364-9.467-7.571-10.457zM13.886 17.5H6.114a2.687 2.687 0 0 1-2.659-2.708c0-3.8 3.487-8.125 6.545-8.125s6.545 4.328 6.545 8.125a2.687 2.687 0 0 1-2.659 2.708z" transform="translate(-1)" style="fill:#5e9cea"/>
</svg>
