<svg xmlns="http://www.w3.org/2000/svg" width="20" height="20" viewBox="0 0 20 20">
    <path data-name="shop (5)" d="m20 8.409-1.041-4.82A4.555 4.555 0 0 0 14.485 0h-8.97a4.555 4.555 0 0 0-4.474 3.589L.03 8.138 0 9.2a3.6 3.6 0 0 0 .833 2.288v3.924A4.588 4.588 0 0 0 5.417 20h9.167a4.588 4.588 0 0 0 4.583-4.583v-3.925A3.6 3.6 0 0 0 20 9.2zm-17.5.138.981-4.417A2.083 2.083 0 0 1 5.515 2.5h.318v1.25A1.25 1.25 0 0 0 7.083 5a1.25 1.25 0 0 0 1.25-1.25V2.5h3.333v1.25A1.25 1.25 0 0 0 12.917 5a1.25 1.25 0 0 0 1.25-1.25V2.5h.318a2.083 2.083 0 0 1 2.034 1.632l.981 4.415V9.2a1.137 1.137 0 0 1-2.273 0 2.046 2.046 0 1 0-4.091 0 1.137 1.137 0 1 1-2.273 0 2.046 2.046 0 1 0-4.091 0 1.137 1.137 0 0 1-2.272 0zM14.583 17.5H5.417a2.083 2.083 0 0 1-2.083-2.083V12.81c.1.009.2.031.3.031a3.639 3.639 0 0 0 3.182-1.878 3.635 3.635 0 0 0 6.363 0 3.639 3.639 0 0 0 3.182 1.878c.1 0 .2-.022.3-.031v2.607a2.083 2.083 0 0 1-2.078 2.083z" style="fill:#5e9cea"/>
</svg>
