<svg xmlns="http://www.w3.org/2000/svg" width="17.999" height="17.999" viewBox="0 0 17.999 17.999">
    <path d="M11.856 2.109a2.469 2.469 0 0 0-4.6.052A33.061 33.061 0 0 0 6.19 5.232a30.971 30.971 0 0 0-3.432.111 2.5 2.5 0 0 0-1.375 4.409 23.912 23.912 0 0 0 2.6 1.86.013.013 0 0 1 .006.007.012.012 0 0 1 0 .008 30.157 30.157 0 0 0-1.02 3.792 2.5 2.5 0 0 0 3.8 2.65A22.241 22.241 0 0 0 9.5 15.921a20.406 20.406 0 0 0 2.775 2.219 2.485 2.485 0 0 0 3.755-2.662 33.718 33.718 0 0 0-1.011-3.849.01.01 0 0 1 0-.007.013.013 0 0 1 .006-.007 24.586 24.586 0 0 0 2.521-1.8 2.512 2.512 0 0 0-1.392-4.443 34.73 34.73 0 0 0-3.3-.129 22.119 22.119 0 0 0-.998-3.134z" transform="translate(-.47 -.56)" style="fill:#e2e5e9;fill-rule:evenodd"/>
</svg>
