<svg xmlns="http://www.w3.org/2000/svg" width="20" height="20" viewBox="0 0 20 20">
    <path data-name="users (2)" d="M6.25 10.833A3.75 3.75 0 1 1 10 7.083a3.75 3.75 0 0 1-3.75 3.75zm0-5a1.25 1.25 0 1 0 1.25 1.25 1.25 1.25 0 0 0-1.25-1.25zM12.5 18.75a6.25 6.25 0 1 0-12.5 0 1.25 1.25 0 1 0 2.5 0 3.75 3.75 0 1 1 7.5 0 1.25 1.25 0 0 0 2.5 0zM20 15a5.833 5.833 0 0 0-9.546-4.5 1.25 1.25 0 0 0 1.592 1.928 3.293 3.293 0 0 1 2.121-.762A3.333 3.333 0 0 1 17.5 15a1.25 1.25 0 0 0 2.5 0zm-5.417-7.5a3.75 3.75 0 1 1 3.75-3.75 3.75 3.75 0 0 1-3.75 3.75zm0-5a1.25 1.25 0 1 0 1.25 1.25 1.25 1.25 0 0 0-1.25-1.25z" style="fill:#5e9cea"/>
</svg>
