<svg xmlns="http://www.w3.org/2000/svg" width="20" height="18" viewBox="0 0 20 18">
    <path data-name="wallet (9)" d="M17.083 5.091h-12.5a2.106 2.106 0 0 1-1.667-.817 2.1 2.1 0 0 1 1.667-.819H18.75a1.227 1.227 0 1 0 0-2.455H4.583A4.548 4.548 0 0 0 0 5.5v9A4.548 4.548 0 0 0 4.583 19h12.5A2.894 2.894 0 0 0 20 16.136V7.955a2.894 2.894 0 0 0-2.917-2.864zm.417 11.045a.414.414 0 0 1-.417.409h-12.5A2.067 2.067 0 0 1 2.5 14.5V7.051a4.646 4.646 0 0 0 2.083.494h12.5a.414.414 0 0 1 .417.409zm-1.667-4.091a1.251 1.251 0 0 1-2.5 0 1.251 1.251 0 0 1 2.5 0z" transform="translate(0 -1)" style="fill:#5e9cea"/>
</svg>
